<svg width="8" height="8" viewBox="0 0 8 8" fill="none" xmlns="http://www.w3.org/2000/svg">
<path d="M0.666671 3.99964C0.666019 3.39363 0.830769 2.79893 1.14316 2.27964C1.45556 1.76035 1.90375 1.33617 2.43944 1.05281C2.97512 0.769444 3.57798 0.637652 4.18304 0.671633C4.7881 0.705615 5.37242 0.904082 5.873 1.24564L5.272 1.99964C5.24479 2.03422 5.23236 2.07816 5.23741 2.12188C5.24247 2.16559 5.26461 2.20553 5.299 2.23298C5.32453 2.25356 5.35565 2.26599 5.38834 2.26864L7.61234 2.45798C7.63416 2.45985 7.65614 2.45741 7.67702 2.45078C7.6979 2.44415 7.71726 2.43348 7.73401 2.41936C7.75076 2.40524 7.76456 2.38796 7.77463 2.36851C7.78469 2.34905 7.79082 2.3278 7.79267 2.30598C7.7944 2.28415 7.79191 2.2622 7.78534 2.24131L7.10467 0.116311C7.09548 0.0876404 7.0787 0.0619949 7.0561 0.0420986C7.0335 0.0222023 7.00594 0.00879837 6.97634 0.00331064C6.96637 0.00108156 6.95621 -0.000146762 6.946 -0.000356022C6.92094 -0.000330516 6.89621 0.00534733 6.87364 0.0162549C6.85107 0.0271625 6.83126 0.0430189 6.81567 0.062644L6.289 0.723311C5.69005 0.303218 4.98724 0.0556613 4.25723 0.00764031C3.52722 -0.0403807 2.79803 0.112978 2.14921 0.450991C1.50039 0.789003 0.95684 1.29869 0.577848 1.92446C0.198857 2.55023 -0.00102507 3.26806 3.95322e-06 3.99964C3.95322e-06 4.08805 0.0351229 4.17283 0.097635 4.23535C0.160147 4.29786 0.244932 4.33298 0.333337 4.33298C0.421743 4.33298 0.506527 4.29786 0.56904 4.23535C0.631552 4.17283 0.666671 4.08805 0.666671 3.99964Z" fill="white" style="fill:white;fill-opacity:1;"/>
<path d="M7.66665 3.6665C7.57825 3.6665 7.49346 3.70162 7.43095 3.76414C7.36844 3.82665 7.33332 3.91143 7.33332 3.99984C7.33397 4.60585 7.16922 5.20055 6.85682 5.71984C6.54443 6.23913 6.09624 6.66331 5.56055 6.94668C5.02487 7.23004 4.42201 7.36183 3.81695 7.32785C3.21189 7.29387 2.62757 7.0954 2.12699 6.75384L2.72799 5.99984C2.74672 5.97624 2.7587 5.948 2.76266 5.91813C2.76662 5.88826 2.7624 5.85788 2.75047 5.83021C2.73853 5.80255 2.71932 5.77863 2.69488 5.76102C2.67043 5.7434 2.64167 5.73274 2.61165 5.73017L0.387652 5.54084C0.365828 5.53896 0.343848 5.54141 0.322971 5.54804C0.302093 5.55466 0.282726 5.56534 0.265977 5.57946C0.249229 5.59357 0.235428 5.61085 0.225362 5.63031C0.215297 5.64976 0.209166 5.67101 0.207318 5.69284C0.205592 5.71466 0.208082 5.73662 0.214652 5.7575L0.895318 7.88317C0.904509 7.91184 0.921293 7.93749 0.943889 7.95738C0.966485 7.97728 0.994049 7.99068 1.02365 7.99617C1.03362 7.9984 1.04378 7.99963 1.05399 7.99984C1.07905 7.99981 1.10378 7.99413 1.12635 7.98323C1.14891 7.97232 1.16873 7.95646 1.18432 7.93684L1.71099 7.27617C2.30994 7.69626 3.01275 7.94382 3.74276 7.99184C4.47277 8.03986 5.20195 7.8865 5.85078 7.54849C6.4996 7.21048 7.04315 6.70079 7.42214 6.07502C7.80113 5.44925 8.00101 4.73143 7.99998 3.99984C7.99998 3.91143 7.96487 3.82665 7.90235 3.76414C7.83984 3.70162 7.75506 3.6665 7.66665 3.6665Z" fill="white" style="fill:white;fill-opacity:1;"/>
</svg>
