<svg width="14" height="14" viewBox="0 0 14 14" fill="none" xmlns="http://www.w3.org/2000/svg">
<path d="M7.00033 8.16659C7.64466 8.16659 8.167 7.64425 8.167 6.99992C8.167 6.35559 7.64466 5.83325 7.00033 5.83325C6.356 5.83325 5.83366 6.35559 5.83366 6.99992C5.83366 7.64425 6.356 8.16659 7.00033 8.16659Z" fill="#D9D9D9" style="fill:#D9D9D9;fill:color(display-p3 0.8510 0.8510 0.8510);fill-opacity:1;"/>
<path d="M1.75033 8.16659C2.39466 8.16659 2.917 7.64425 2.917 6.99992C2.917 6.35559 2.39466 5.83325 1.75033 5.83325C1.106 5.83325 0.583664 6.35559 0.583664 6.99992C0.583664 7.64425 1.106 8.16659 1.75033 8.16659Z" fill="#D9D9D9" style="fill:#D9D9D9;fill:color(display-p3 0.8510 0.8510 0.8510);fill-opacity:1;"/>
<path d="M12.2503 8.16659C12.8947 8.16659 13.417 7.64425 13.417 6.99992C13.417 6.35559 12.8947 5.83325 12.2503 5.83325C11.606 5.83325 11.0837 6.35559 11.0837 6.99992C11.0837 7.64425 11.606 8.16659 12.2503 8.16659Z" fill="#D9D9D9" style="fill:#D9D9D9;fill:color(display-p3 0.8510 0.8510 0.8510);fill-opacity:1;"/>
</svg>
